<?xml version="1.0" encoding="UTF-8" standalone="no"?>
<!DOCTYPE svg PUBLIC "-//W3C//DTD SVG 1.1//EN" "http://www.w3.org/Graphics/SVG/1.1/DTD/svg11.dtd">
<svg width="100%" height="100%" viewBox="0 0 159 101" version="1.1" xmlns="http://www.w3.org/2000/svg" xmlns:xlink="http://www.w3.org/1999/xlink" xml:space="preserve" xmlns:serif="http://www.serif.com/" style="fill-rule:evenodd;clip-rule:evenodd;stroke-linejoin:round;stroke-miterlimit:2;">
    <g transform="matrix(1,0,0,1,-15.905599,-86.558613)">
        <g id="Fundo" transform="matrix(1,0,0,1,14,85)">
            <path d="M45.705,13.489C45.32,10.027 45.356,10.028 45.236,9.552C45.163,9.265 44.879,9.337 44.36,4.516C44.336,4.291 44.117,2.261 45.559,1.956C46.193,1.823 46.854,1.934 47.501,1.951C54,2.121 54,2.006 54.564,2.041C57.671,2.236 56.092,5.177 55.853,7.56C55.829,7.796 55.055,13.875 55.445,14.528C55.582,14.756 55.943,14.74 56.141,14.918C56.307,15.069 56.308,15.377 56.506,15.484C56.661,15.567 56.691,15.465 58.629,16.072C58.775,16.118 59.56,16.364 60.494,16.525C62.61,16.891 62.701,16.086 62.887,15.876C63.036,15.709 63.282,15.635 63.404,15.447C63.567,15.197 63.571,14.869 63.714,14.607C63.788,14.472 63.97,14.418 64.043,14.283C64.7,13.067 64.356,12.937 64.994,11.717C65.06,11.59 65.232,11.54 65.298,11.413C65.731,10.573 65.391,10.465 65.85,9.655C65.931,9.514 66.172,9.524 66.257,9.386C66.746,8.586 66.352,8.451 66.81,7.65C66.891,7.508 67.135,7.508 67.206,7.361C67.47,6.815 67.528,6.186 67.785,5.637C67.852,5.493 68.084,5.479 68.154,5.336C68.249,5.142 68.213,4.458 69.15,3.273C69.274,3.116 69.635,1.848 72.502,1.952C74.006,2.006 73.99,2.033 75.5,2.033C82.83,2.033 82.805,1.816 83.438,1.861C83.661,1.877 84.668,2.916 84.455,3.478C84.387,3.656 84.016,3.508 83.916,3.671C83.835,3.804 84.148,3.983 84.065,4.115C83.938,4.316 83.637,4.322 83.43,4.44C82.591,4.92 82.561,5.301 82.433,5.44C82.281,5.605 82.05,5.685 81.898,5.851C81.728,6.038 81.649,6.295 81.48,6.483C81.333,6.646 81.105,6.723 80.962,6.889C80.434,7.502 80.731,7.67 80.193,8.271C80.046,8.436 79.766,8.437 79.619,8.602C79.448,8.796 79.452,9.108 79.281,9.302C79.126,9.476 78.84,9.49 78.682,9.66C78.508,9.848 78.492,10.147 78.322,10.338C78.17,10.51 77.902,10.548 77.746,10.717C77.574,10.904 77.534,11.187 77.365,11.377C77.213,11.547 76.961,11.604 76.807,11.772C76.636,11.957 76.575,12.227 76.407,12.415C76.255,12.584 76.017,12.657 75.863,12.824C75.693,13.009 75.618,13.267 75.45,13.454C75.298,13.621 75.069,13.704 74.917,13.871C74.748,14.057 74.666,14.311 74.497,14.498C74.351,14.661 74.125,14.741 73.983,14.907C73.462,15.514 73.747,15.673 73.206,16.281C73.06,16.445 72.787,16.457 72.642,16.621C72.471,16.815 72.466,17.121 72.294,17.314C72.141,17.487 71.861,17.51 71.703,17.679C71.53,17.866 71.504,18.159 71.334,18.349C71.182,18.52 70.921,18.565 70.764,18.733C70.59,18.92 70.538,19.2 70.366,19.388C70.334,19.423 69.286,19.845 69.414,21.516C69.51,22.764 70.091,22.492 70.244,22.712C70.875,23.993 70.84,24.006 70.925,24.095C71.178,24.358 71.284,24.173 71.543,24.441C73.125,24.484 73.241,24.888 74.241,24.124C74.4,24.002 74.45,23.77 74.607,23.646C74.821,23.477 75.117,23.435 75.33,23.265C75.486,23.14 75.529,22.904 75.689,22.782C75.911,22.612 76.217,22.58 76.444,22.415C76.6,22.302 76.65,22.075 76.81,21.967C77.267,21.66 77.815,21.504 78.267,21.189C78.439,21.068 78.479,20.811 78.646,20.683C78.862,20.519 79.172,20.509 79.382,20.338C79.542,20.209 79.551,19.944 79.713,19.819C79.935,19.646 80.262,19.65 80.488,19.482C80.647,19.363 80.649,19.083 80.825,18.992C80.946,18.93 81.095,19.166 81.218,19.108C81.402,19.02 81.435,18.752 81.595,18.626C81.81,18.459 82.105,18.418 82.318,18.25C82.476,18.126 82.522,17.892 82.682,17.771C82.904,17.602 83.208,17.565 83.434,17.401C83.59,17.289 83.646,17.067 83.805,16.96C84.262,16.654 84.807,16.493 85.258,16.177C85.43,16.057 85.473,15.803 85.641,15.675C85.855,15.511 86.162,15.495 86.372,15.325C86.531,15.196 86.547,14.937 86.709,14.812C86.932,14.64 87.253,14.636 87.479,14.469C87.637,14.352 87.647,14.079 87.822,13.989C87.941,13.928 88.089,14.153 88.21,14.095C88.393,14.006 88.429,13.743 88.589,13.619C88.804,13.452 89.097,13.406 89.311,13.239C89.468,13.116 89.519,12.887 89.678,12.766C89.901,12.597 90.202,12.556 90.428,12.392C90.584,12.28 90.644,12.062 90.803,11.954C91.258,11.647 91.799,11.479 92.247,11.163C92.419,11.043 92.466,10.794 92.633,10.666C92.847,10.502 93.151,10.48 93.361,10.31C93.52,10.182 93.543,9.928 93.704,9.803C93.926,9.631 94.243,9.619 94.469,9.453C94.626,9.337 94.663,9.101 94.818,8.982C95.493,8.468 95.65,8.763 96.296,8.228C96.46,8.092 96.496,7.835 96.665,7.706C96.882,7.542 97.204,7.554 97.414,7.381C97.575,7.249 97.56,6.966 97.724,6.837C97.947,6.662 98.255,6.637 98.514,6.521C99.359,6.139 99.218,5.969 99.618,5.657C99.833,5.49 100.137,5.463 100.35,5.293C100.508,5.167 100.538,4.92 100.699,4.797C100.921,4.627 101.235,4.607 101.461,4.441C101.618,4.326 101.661,4.095 101.816,3.978C102.483,3.472 102.613,3.722 103.287,3.208C103.441,3.09 103.504,2.875 103.664,2.766C104.933,1.904 105.074,2.036 125.5,2.033C135.57,2.032 139.197,1.43 139.462,1.584C140.967,2.455 139.407,3.191 139.286,3.248C138.766,3.493 138.169,3.513 137.606,3.628C135.951,3.967 135.929,3.838 135.794,3.895C135.62,3.968 135.589,4.239 135.418,4.319C134.56,4.721 134.476,4.365 133.6,4.73C133.472,4.784 133.421,4.967 133.288,5.007C133.11,5.06 132.908,4.933 132.731,4.99C132.59,5.036 132.541,5.235 132.405,5.295C131.848,5.54 131.231,5.637 130.679,5.894C130.541,5.958 130.516,6.175 130.377,6.238C129.822,6.489 129.194,6.555 128.644,6.815C128.501,6.883 128.501,7.129 128.356,7.195C127.799,7.446 127.158,7.475 126.606,7.735C126.46,7.803 126.486,8.062 126.345,8.14C126.152,8.247 126.049,7.927 123.706,8.956C123.57,9.016 123.527,9.207 123.397,9.278C122.572,9.725 122.477,9.439 121.674,9.882C121.539,9.956 121.514,10.168 121.374,10.232C120.819,10.483 120.189,10.543 119.638,10.804C119.494,10.872 119.493,11.11 119.353,11.187C118.533,11.636 118.394,11.231 117.598,11.717C117.459,11.801 117.497,12.083 117.342,12.132C117.138,12.197 116.922,11.942 116.715,11.995C116.569,12.033 116.586,12.299 116.449,12.363C115.894,12.625 115.262,12.698 114.7,12.946C114.564,13.006 114.529,13.209 114.394,13.27C113.839,13.521 113.219,13.609 112.668,13.868C112.528,13.934 112.51,14.159 112.37,14.223C111.814,14.474 111.182,14.528 110.631,14.789C110.486,14.858 110.491,15.104 110.35,15.181C109.531,15.634 109.386,15.213 108.591,15.704C108.452,15.79 108.497,16.078 108.34,16.127C108.133,16.192 107.917,15.928 107.707,15.981C107.56,16.018 107.582,16.287 107.446,16.352C106.89,16.614 106.257,16.682 105.695,16.931C105.558,16.992 105.526,17.199 105.389,17.261C104.835,17.514 104.212,17.596 103.662,17.856C103.522,17.922 103.508,18.152 103.367,18.215C102.81,18.466 102.176,18.515 101.623,18.773C101.481,18.84 101.49,19.082 101.352,19.157C100.533,19.606 100.427,19.277 99.585,19.703C99.459,19.767 99.42,19.958 99.286,20.003C99.108,20.064 98.901,19.934 98.723,19.995C98.584,20.043 98.539,20.235 98.41,20.304C97.594,20.743 97.504,20.481 96.691,20.919C96.558,20.991 96.522,21.192 96.385,21.254C95.83,21.506 95.206,21.584 94.656,21.844C94.515,21.91 94.506,22.145 94.364,22.209C93.807,22.459 93.17,22.502 92.617,22.761C92.474,22.828 92.489,23.077 92.351,23.154C92.157,23.26 92.058,22.958 89.717,23.981C89.582,24.04 89.535,24.226 89.405,24.296C88.59,24.737 88.497,24.467 87.684,24.906C87.551,24.978 87.519,25.182 87.381,25.244C86.826,25.496 86.201,25.568 85.65,25.828C85.508,25.896 85.503,26.136 85.359,26.2C84.802,26.451 84.162,26.485 83.609,26.745C83.465,26.813 83.486,27.067 83.347,27.144C83.154,27.251 83.053,26.942 80.711,27.968C80.576,28.028 80.531,28.215 80.4,28.285C79.581,28.727 79.492,28.447 78.678,28.892C78.544,28.965 78.515,29.174 78.376,29.237C77.832,29.484 77.204,29.523 76.674,29.801C76.487,29.899 76.465,30.176 76.31,30.319C76.215,30.406 75.582,30.555 75.575,31.498C75.567,32.576 76.063,32.442 76.105,32.632C76.157,32.866 75.889,33.099 75.944,33.333C75.98,33.485 76.24,33.469 76.332,33.595C76.487,33.81 76.456,34.15 76.659,34.32C77.545,35.062 80.616,33.866 81.543,33.735C82.193,33.642 82.844,33.561 83.493,33.461C85.052,33.223 84.967,32.935 86.537,32.696C88.611,32.381 88.589,32.371 90.591,31.816C92.01,31.422 92.041,31.705 93.463,31.341C93.899,31.229 93.818,30.978 95.542,30.73C96.192,30.637 96.843,30.553 97.492,30.453C99.051,30.214 98.967,29.935 100.537,29.696C102.597,29.383 102.584,29.373 104.591,28.816C106,28.425 106.043,28.705 107.463,28.34C107.868,28.236 107.811,27.974 109.542,27.726C110.192,27.633 110.843,27.551 111.492,27.452C113.047,27.216 112.963,26.933 114.536,26.693C116.6,26.379 116.587,26.368 118.59,25.815C119.996,25.427 120.037,25.7 121.461,25.334C121.919,25.216 121.83,24.974 123.542,24.728C124.191,24.635 124.842,24.551 125.491,24.45C127.049,24.209 126.974,23.929 128.535,23.692C130.597,23.379 130.584,23.369 132.59,22.815C133.996,22.427 134.037,22.7 135.461,22.334C135.919,22.216 135.83,21.974 137.542,21.728C138.191,21.635 138.842,21.551 139.491,21.45C141.055,21.208 140.973,20.93 142.535,20.691C144.594,20.377 144.582,20.368 146.59,19.813C148.001,19.424 148.031,19.701 149.461,19.333C149.873,19.227 149.805,18.972 151.541,18.723C155.83,18.108 155.733,17.569 158.504,17.382C159.777,17.295 159.675,18.038 159.852,18.264C159.966,18.41 160.262,18.372 160.332,18.544C160.333,18.547 160.39,36.797 160.292,37.441C160.06,38.95 158.9,38.63 147.503,38.769C145.319,38.796 145.354,38.957 144.43,39.124C143.601,39.274 141.062,39.116 86.504,39.763C84.3,39.789 84.334,39.954 83.429,40.118C80.931,40.569 80.903,39.848 78.393,40.192C76.179,40.496 76.71,41.41 77.48,43.515C77.73,44.197 77.962,43.881 78.227,43.945C78.372,43.979 78.428,44.186 78.571,44.228C78.876,44.32 79.205,44.302 79.522,44.334C83.167,44.701 83.17,44.627 83.483,44.683C83.859,44.751 84.188,44.992 84.561,45.077C84.886,45.151 85.227,45.126 85.56,45.157C85.954,45.194 90.087,45.578 90.485,45.65C90.861,45.718 91.194,45.947 91.567,46.029C92.226,46.174 97.015,46.576 97.489,46.616C99.053,46.747 98.994,47.022 100.557,47.168C100.952,47.205 105.111,47.593 105.485,47.661C106.538,47.853 106.49,48.028 107.564,48.128C108.037,48.171 112.932,48.624 113.471,48.717C114.263,48.855 114.204,49.13 119.492,49.59C121.055,49.726 121.001,49.993 122.563,50.141C122.957,50.179 127.126,50.574 127.487,50.639C128.545,50.829 128.493,50.984 129.572,51.096C135.012,51.661 135.016,51.597 135.483,51.682C135.86,51.75 136.188,51.991 136.561,52.077C136.886,52.151 137.227,52.126 137.56,52.157C137.954,52.194 142.091,52.579 142.486,52.65C142.862,52.718 143.194,52.946 143.567,53.028C143.894,53.1 144.235,53.073 144.568,53.108C150.011,53.669 150.015,53.603 150.482,53.689C151.489,53.873 151.433,54.066 152.557,54.171C153.029,54.216 158.414,54.718 158.454,54.728C158.595,54.763 158.504,55.1 158.648,55.118C158.892,55.147 159.095,54.756 159.329,54.834C159.531,54.901 159.416,55.278 159.57,55.426C159.731,55.58 160.07,55.482 160.195,55.666C160.333,55.87 160.343,57.358 160.344,57.505C160.354,59.022 160.464,75.608 160.356,76.461C160.334,76.632 160.165,77.967 158.498,77.557C158.091,77.457 157.781,77.091 157.373,76.997C157.129,76.941 156.876,77.189 156.632,77.129C156.493,77.094 156.539,76.825 156.412,76.759C156.132,76.612 155.786,76.642 155.49,76.531C155.093,76.382 154.757,76.071 154.342,75.982C154.106,75.932 153.869,76.187 153.633,76.133C153.494,76.101 153.534,75.834 153.407,75.769C153.126,75.624 152.782,75.654 152.486,75.543C152.089,75.395 151.753,75.086 151.339,74.996C151.103,74.945 150.865,75.195 150.63,75.142C150.492,75.111 150.533,74.835 150.401,74.784C149.808,74.555 149.167,74.478 148.548,74.335C148.243,74.265 147.912,74.278 147.629,74.144C147.502,74.085 147.529,73.845 147.398,73.795C146.805,73.567 146.165,73.488 145.546,73.344C145.241,73.273 144.911,73.281 144.627,73.149C144.502,73.091 144.522,72.857 144.393,72.807C143.8,72.581 143.161,72.5 142.542,72.355C142.238,72.283 141.909,72.288 141.625,72.156C141.5,72.099 141.517,71.868 141.389,71.819C140.796,71.592 140.159,71.506 139.542,71.358C139.237,71.285 138.908,71.289 138.623,71.159C138.5,71.103 138.513,70.878 138.386,70.83C137.036,70.319 136.924,70.756 135.621,70.165C135.499,70.11 135.504,69.893 135.38,69.846C134.786,69.622 134.138,69.577 133.536,69.378C133.134,69.244 132.781,68.984 132.378,68.852C131.776,68.653 131.135,68.586 130.533,68.388C130.13,68.256 129.775,68 129.373,67.867C126.968,67.073 126.946,67.204 124.528,66.407C124.124,66.274 123.768,66.021 123.365,65.888C120.963,65.094 120.941,65.222 118.521,64.428C118.118,64.296 117.76,64.047 117.357,63.914C114.95,63.122 114.932,63.242 112.517,62.441C112.115,62.308 111.755,62.061 111.352,61.928C108.938,61.134 108.92,61.254 106.511,60.461C106.108,60.328 105.746,60.084 105.342,59.951C102.925,59.154 102.908,59.27 100.507,58.478C100.104,58.345 99.742,58.103 99.338,57.973C98.736,57.778 98.098,57.709 97.498,57.506C97.097,57.37 96.765,57.046 96.35,56.96C96.112,56.911 95.874,57.177 95.637,57.122C95.494,57.088 95.545,56.81 95.416,56.742C95.137,56.593 94.791,56.626 94.495,56.516C94.098,56.367 93.763,56.055 93.348,55.968C93.11,55.919 92.873,56.181 92.635,56.127C92.494,56.095 92.54,55.823 92.412,55.756C92.131,55.61 91.786,55.641 91.49,55.53C91.093,55.382 90.757,55.071 90.342,54.982C90.106,54.932 89.869,55.187 89.633,55.133C89.494,55.101 89.534,54.834 89.407,54.769C89.126,54.624 88.782,54.654 88.486,54.543C88.089,54.394 87.753,54.084 87.338,53.994C87.103,53.943 86.866,54.195 86.631,54.141C86.492,54.11 86.535,53.833 86.402,53.781C85.809,53.552 85.168,53.477 84.548,53.335C84.243,53.265 83.912,53.278 83.629,53.145C83.502,53.085 83.529,52.844 83.399,52.794C82.805,52.566 82.164,52.489 81.545,52.345C81.241,52.274 80.911,52.282 80.627,52.149C80.502,52.091 80.523,51.857 80.394,51.807C79.8,51.581 79.16,51.502 78.542,51.355C78.236,51.282 77.906,51.282 77.62,51.148C77.5,51.091 77.515,50.876 77.396,50.817C76.626,50.438 75.682,50.593 75.534,50.617C74.436,50.797 74.294,52.131 74.155,52.341C74.065,52.477 73.83,52.473 73.749,52.614C73.285,53.429 73.741,54.942 73.895,55.05C74.332,55.36 74.916,55.399 75.379,55.668C75.547,55.765 75.584,56.009 75.742,56.12C76.456,56.623 76.603,56.308 77.312,56.803C77.468,56.912 77.501,57.149 77.654,57.263C77.879,57.431 78.185,57.462 78.415,57.623C78.57,57.732 78.611,57.977 78.783,58.056C78.911,58.115 79.072,57.926 79.2,57.985C79.368,58.062 79.401,58.307 79.553,58.411C79.793,58.573 80.11,58.598 80.347,58.764C80.498,58.869 80.535,59.094 80.685,59.201C81.412,59.714 81.575,59.338 82.284,59.847C82.446,59.963 82.433,60.238 82.591,60.36C82.814,60.532 83.139,60.526 83.371,60.686C83.53,60.795 83.568,61.032 83.726,61.144C84.441,61.653 84.59,61.313 85.305,61.814C85.463,61.925 85.484,62.171 85.639,62.287C85.863,62.455 86.174,62.478 86.404,62.638C86.56,62.747 86.597,62.998 86.77,63.076C86.902,63.135 87.064,62.932 87.196,62.992C87.365,63.069 87.39,63.323 87.543,63.429C87.778,63.592 88.093,63.614 88.328,63.777C88.483,63.885 88.53,64.108 88.682,64.219C88.909,64.385 89.209,64.428 89.439,64.589C89.592,64.697 89.643,64.929 89.812,65.011C89.933,65.07 90.09,64.908 90.212,64.965C90.377,65.041 90.428,65.267 90.579,65.368C90.819,65.528 91.127,65.569 91.365,65.733C91.514,65.837 91.565,66.049 91.715,66.152C92.442,66.651 92.592,66.323 93.3,66.823C93.459,66.935 93.471,67.189 93.626,67.306C93.85,67.475 94.166,67.489 94.396,67.65C94.553,67.759 94.582,68.019 94.758,68.096C94.894,68.155 95.057,67.934 95.193,67.996C95.364,68.073 95.378,68.339 95.532,68.447C95.766,68.612 96.085,68.625 96.32,68.788C96.476,68.897 96.516,69.127 96.669,69.24C96.895,69.406 97.198,69.444 97.427,69.605C97.582,69.713 97.628,69.951 97.798,70.032C97.922,70.091 98.082,69.917 98.207,69.975C98.372,70.051 98.415,70.286 98.567,70.388C98.807,70.549 99.118,70.583 99.356,70.748C99.506,70.853 99.55,71.072 99.701,71.176C100.425,71.68 100.578,71.328 101.292,71.835C101.452,71.949 101.453,72.213 101.609,72.332C101.833,72.502 102.153,72.507 102.384,72.667C102.542,72.777 102.586,73.007 102.743,73.117C103.467,73.627 103.605,73.308 104.313,73.801C104.47,73.91 104.503,74.146 104.656,74.26C104.882,74.427 105.187,74.459 105.417,74.62C105.572,74.729 105.613,74.973 105.785,75.053C105.913,75.112 106.073,74.924 106.201,74.983C106.368,75.06 106.402,75.305 106.555,75.408C106.794,75.571 107.111,75.596 107.348,75.762C107.499,75.867 107.536,76.092 107.687,76.197C108.415,76.708 108.576,76.335 109.288,76.843C109.45,76.958 109.44,77.23 109.597,77.35C109.82,77.522 110.144,77.518 110.376,77.679C110.535,77.789 110.574,78.025 110.731,78.137C111.438,78.643 111.593,78.313 112.307,78.812C112.464,78.922 112.488,79.166 112.642,79.28C112.867,79.448 113.177,79.473 113.408,79.633C113.564,79.742 113.601,79.992 113.775,80.07C113.905,80.129 114.067,79.929 114.197,79.989C114.366,80.067 114.393,80.318 114.546,80.425C114.78,80.588 115.094,80.612 115.328,80.775C115.483,80.884 115.531,81.106 115.684,81.218C115.91,81.384 116.209,81.428 116.439,81.589C116.592,81.697 116.643,81.929 116.812,82.011C116.933,82.07 117.09,81.909 117.212,81.965C117.377,82.042 117.428,82.267 117.579,82.367C117.82,82.528 118.127,82.569 118.365,82.733C118.515,82.836 118.565,83.048 118.715,83.151C119.434,83.643 119.584,83.318 120.3,83.823C120.458,83.935 120.472,84.187 120.627,84.304C120.852,84.473 121.166,84.489 121.396,84.65C121.553,84.759 121.584,85.017 121.759,85.094C121.895,85.153 122.058,84.936 122.192,84.997C122.363,85.075 122.378,85.339 122.532,85.447C122.767,85.611 123.085,85.625 123.321,85.789C123.476,85.897 123.517,86.126 123.669,86.239C123.895,86.405 124.198,86.443 124.428,86.604C124.582,86.713 124.629,86.95 124.8,87.03C124.923,87.089 125.082,86.917 125.207,86.974C125.372,87.051 125.417,87.284 125.568,87.386C125.808,87.547 126.119,87.582 126.357,87.747C126.507,87.851 126.551,88.069 126.702,88.173C127.428,88.677 127.579,88.327 128.294,88.833C128.454,88.946 128.457,89.208 128.613,89.326C128.837,89.496 129.156,89.503 129.387,89.663C129.544,89.773 129.589,90.003 129.746,90.114C130.463,90.621 130.605,90.309 131.313,90.801C131.47,90.909 131.505,91.142 131.658,91.255C131.884,91.422 132.189,91.456 132.419,91.617C132.574,91.726 132.617,91.968 132.789,92.048C132.916,92.106 133.076,91.923 133.203,91.981C133.37,92.058 133.406,92.3 133.558,92.403C133.798,92.565 134.113,92.592 134.35,92.758C134.501,92.864 134.538,93.089 134.689,93.195C135.417,93.707 135.577,93.337 136.288,93.843C136.449,93.958 136.441,94.229 136.598,94.349C136.821,94.521 137.145,94.518 137.377,94.678C137.536,94.787 137.576,95.022 137.733,95.134C138.451,95.644 138.6,95.313 139.308,95.809C139.465,95.92 139.49,96.163 139.644,96.278C139.869,96.446 140.178,96.472 140.409,96.632C140.565,96.74 140.608,96.986 140.781,97.064C140.91,97.122 141.069,96.93 141.198,96.987C141.366,97.062 141.401,97.307 141.555,97.409C141.794,97.568 142.102,97.596 142.345,97.749C142.507,97.85 142.581,98.063 142.748,98.156C143.235,98.428 143.784,98.575 144.281,98.828C144.467,98.922 144.601,99.103 144.788,99.194C146.163,99.864 146.48,99.628 146.618,100.473C146.874,102.041 146.101,101.827 144.524,101.659C144.282,101.634 141.754,101.366 141.499,101.313C141.156,101.242 140.851,101.032 140.506,100.971C140.362,100.945 134.892,100.95 128.5,100.95C111.888,100.95 111.892,100.753 110.457,100.91C110.157,100.942 109.886,101.135 109.585,101.154C108.694,101.211 108.578,100.281 108.151,99.893C107.965,99.725 107.709,99.646 107.528,99.473C107.355,99.307 107.273,99.062 107.104,98.892C106.937,98.724 106.699,98.637 106.532,98.469C106.363,98.298 106.278,98.056 106.109,97.885C105.942,97.717 105.703,97.632 105.537,97.464C105.368,97.293 105.285,97.049 105.115,96.879C104.949,96.71 104.708,96.627 104.541,96.459C104.373,96.289 104.291,96.045 104.122,95.875C103.954,95.706 103.712,95.624 103.545,95.456C103.376,95.285 103.295,95.04 103.126,94.869C102.959,94.7 102.717,94.619 102.55,94.45C102.382,94.279 102.302,94.034 102.133,93.863C101.965,93.695 101.722,93.614 101.555,93.445C101.386,93.274 101.307,93.028 101.138,92.857C100.971,92.688 100.728,92.608 100.562,92.439C100.393,92.268 100.314,92.021 100.145,91.85C99.978,91.681 99.733,91.604 99.566,91.435C99.397,91.264 99.32,91.015 99.151,90.844C98.983,90.675 98.737,90.599 98.57,90.43C98.401,90.259 98.327,90.01 98.157,89.839C97.99,89.67 97.742,89.596 97.574,89.426C97.405,89.256 97.331,89.005 97.162,88.834C96.994,88.665 96.746,88.592 96.578,88.423C96.409,88.251 96.337,87.999 96.167,87.828C96,87.659 95.751,87.586 95.584,87.417C95.415,87.245 95.344,86.992 95.175,86.82C95.008,86.651 94.758,86.58 94.59,86.41C94.421,86.239 94.351,85.986 94.181,85.815C94.013,85.646 93.762,85.576 93.595,85.407C93.425,85.235 93.357,84.979 93.187,84.808C93.02,84.638 92.768,84.57 92.601,84.401C92.431,84.229 92.365,83.972 92.195,83.8C92.027,83.631 91.773,83.565 91.605,83.396C91.436,83.224 91.372,82.966 91.202,82.795C91.033,82.625 90.777,82.562 90.609,82.392C90.439,82.221 90.376,81.962 90.206,81.791C90.037,81.622 89.78,81.559 89.612,81.389C89.442,81.218 89.381,80.957 89.211,80.786C89.043,80.616 88.784,80.555 88.616,80.385C88.446,80.214 88.386,79.952 88.216,79.781C88.048,79.611 87.788,79.552 87.62,79.381C87.45,79.209 87.392,78.946 87.222,78.773C87.054,78.604 86.793,78.547 86.625,78.376C86.455,78.204 86.399,77.939 86.229,77.767C86.061,77.597 85.797,77.543 85.63,77.372C85.46,77.199 85.408,76.931 85.238,76.758C85.069,76.588 84.804,76.536 84.636,76.366C84.465,76.194 84.415,75.926 84.244,75.754C84.075,75.583 83.808,75.533 83.639,75.362C83.468,75.19 83.42,74.92 83.249,74.748C83.08,74.577 82.812,74.529 82.643,74.359C82.472,74.186 82.427,73.914 82.255,73.741C82.086,73.57 81.816,73.525 81.647,73.354C81.476,73.182 81.433,72.909 81.262,72.736C81.092,72.565 80.82,72.522 80.65,72.351C80.479,72.178 80.437,71.904 80.266,71.731C80.096,71.56 79.824,71.518 79.655,71.347C79.484,71.173 79.444,70.897 79.272,70.724C79.103,70.553 78.828,70.514 78.659,70.343C78.488,70.169 78.451,69.89 78.28,69.717C78.11,69.546 77.833,69.51 77.664,69.338C77.493,69.164 77.46,68.883 77.288,68.709C77.118,68.537 76.839,68.504 76.669,68.332C76.498,68.158 76.467,67.876 76.295,67.702C76.124,67.531 75.843,67.501 75.673,67.328C75.502,67.154 75.475,66.869 75.303,66.695C75.132,66.523 74.847,66.497 74.676,66.325C74.504,66.151 74.48,65.864 74.308,65.69C74.137,65.518 73.85,65.494 73.68,65.322C73.508,65.147 73.486,64.858 73.313,64.684C73.142,64.512 72.854,64.491 72.683,64.319C72.511,64.144 72.492,63.852 72.319,63.678C72.148,63.506 71.857,63.488 71.687,63.315C71.514,63.14 71.499,62.847 71.326,62.672C70.775,62.116 70.515,62.553 69.975,62.002C69.435,61.45 69.964,61.138 69.366,60.665C68.746,60.175 67.613,60.344 67.46,60.367C66.519,60.507 66.392,61.121 66.315,61.179C66.082,61.355 65.77,61.389 65.502,61.502C64.822,61.789 64.879,61.854 64.349,62.362C64.253,62.454 63.689,62.619 63.689,63.497C63.687,64.468 64.096,64.418 64.198,64.616C64.477,65.157 64.571,65.779 64.847,66.321C64.923,66.468 65.155,66.49 65.23,66.638C65.501,67.169 65.593,67.78 65.863,68.312C65.937,68.46 66.166,68.485 66.242,68.633C66.514,69.163 66.613,69.771 66.883,70.303C66.957,70.449 67.177,70.481 67.252,70.626C67.522,71.158 67.627,71.764 67.896,72.296C67.969,72.442 68.186,72.477 68.26,72.623C68.53,73.154 68.64,73.757 68.909,74.289C68.983,74.434 69.196,74.473 69.27,74.618C69.541,75.148 69.656,75.749 69.926,76.28C69.999,76.425 70.207,76.468 70.281,76.612C70.551,77.143 70.671,77.742 70.94,78.274C71.013,78.418 71.216,78.464 71.289,78.607C71.56,79.138 71.685,79.734 71.954,80.265C72.027,80.408 72.218,80.464 72.301,80.602C72.768,81.387 72.528,81.476 72.971,82.257C73.051,82.396 73.23,82.458 73.312,82.596C74.112,83.946 73.872,84.054 74.674,85.412C74.755,85.549 74.93,85.613 75.008,85.751C75.154,86.012 75.22,86.309 75.333,86.585C75.76,87.624 75.91,87.538 76.342,88.581C76.607,89.221 76.68,89.153 77.038,89.757C77.498,90.533 77.217,90.649 77.719,91.38C77.821,91.528 78.067,91.536 78.161,91.689C78.636,92.463 78.237,92.619 78.735,93.378C78.831,93.524 79.08,93.519 79.172,93.668C79.649,94.443 79.247,94.591 79.753,95.369C79.847,95.514 80.091,95.516 80.181,95.663C80.658,96.437 80.27,96.583 80.776,97.36C80.869,97.504 81.104,97.509 81.198,97.652C81.364,97.902 81.372,98.231 81.522,98.49C81.744,98.871 82.116,99.158 82.306,99.556C82.442,99.843 82.341,100.208 82.478,100.496C82.045,100.604 82.041,100.465 81.596,100.576C81.518,100.595 80.958,100.735 80.665,100.949C80.539,101.041 80.615,101.29 80.489,101.382C79.998,101.276 79.999,101.411 79.497,101.302C78.524,101.092 78.587,100.963 78.504,100.953C77.84,100.875 77.168,100.95 76.5,100.95C66.306,100.94 66.306,100.785 65.429,100.905C65.134,100.946 64.884,101.175 64.588,101.209C64.351,101.235 64.061,101.24 63.886,101.079C63.834,101.032 62.903,97.702 62.821,97.407C62.427,95.998 62.711,95.954 62.344,94.537C62.234,94.109 61.981,94.187 61.726,92.457C61.63,91.809 61.543,91.159 61.441,90.511C61.195,88.952 60.926,89.024 60.679,87.466C60.351,85.397 60.351,85.417 59.795,83.414C59.402,81.999 59.654,81.972 59.293,80.549C59.187,80.134 58.965,80.206 58.692,78.463C58.37,76.411 58.365,76.432 57.804,74.412C57.412,72.998 57.673,72.962 57.312,71.545C57.209,71.141 56.966,71.186 56.708,69.461C56.61,68.813 56.528,68.163 56.421,67.516C56.301,66.789 56.34,66.772 55.853,66.21C55.599,65.917 55.727,65.227 51.5,65.5C50.602,65.559 50.644,65.692 50.167,66.179C50.02,66.329 49.762,66.378 49.669,66.566C49.529,66.85 49.549,67.188 49.513,67.502C49.344,68.995 49.569,69 49.341,70.49C49.285,70.857 49.041,71.178 48.984,71.545C48.881,72.207 48.914,72.883 48.866,73.551C48.343,80.857 48.417,80.86 48.318,81.489C48.26,81.856 48.005,82.174 47.946,82.542C47.839,83.202 47.873,83.877 47.826,84.545C47.375,90.938 47.43,90.94 47.345,91.49C47.288,91.857 47.044,92.179 46.987,92.546C46.951,92.779 46.667,98.774 46.304,100.409C46.154,101.085 46.113,101.156 45.419,101.235C44.065,101.39 43.735,100.974 43.512,100.948C42.846,100.871 42.171,100.949 41.5,100.95C39.071,100.951 29.651,100.942 29.414,100.972C29.103,101.013 28.856,101.296 28.545,101.332C28.439,101.345 27.671,101.435 27.499,100.5C27.327,99.565 27.582,99.604 28.092,98.368C28.331,97.788 28.468,97.169 28.697,96.585C29.759,93.869 29.69,93.847 29.785,93.613C29.838,93.485 30.043,93.466 30.095,93.338C31.074,90.934 30.75,90.841 30.852,90.642C30.92,90.509 31.161,90.524 31.222,90.387C31.473,89.821 31.52,89.182 31.755,88.61C31.808,88.479 32.015,88.457 32.069,88.326C33.051,85.924 32.734,85.835 32.835,85.635C32.901,85.504 33.13,85.508 33.19,85.374C33.44,84.809 33.501,84.173 33.737,83.602C33.79,83.473 33.988,83.443 34.041,83.314C35.016,80.914 34.723,80.83 34.823,80.629C34.886,80.501 35.092,80.489 35.158,80.362C35.588,79.534 35.29,79.441 35.715,78.593C35.777,78.469 35.96,78.429 36.012,78.3C36.244,77.725 36.378,77.114 36.554,76.518C36.875,75.434 37.056,75.52 37.399,74.458C37.772,73.303 38.247,72.419 38.251,72.406C38.466,71.821 38.55,71.191 38.787,70.614C38.839,70.486 39.047,70.467 39.099,70.338C40.081,67.936 39.751,67.842 39.853,67.643C39.922,67.509 40.164,67.525 40.226,67.388C40.48,66.822 40.531,66.181 40.767,65.606C40.812,65.497 41.213,65.327 41.277,64.466C41.39,62.951 40.87,63.131 39.604,62.32C39.459,62.227 39.39,62.042 39.243,61.953C38.475,61.487 37.646,61.469 37.501,61.466C35.551,61.424 35.519,62.927 35.232,63.319C35.115,63.479 34.886,63.53 34.766,63.688C34.247,64.363 34.523,64.503 34.016,65.186C33.901,65.34 33.671,65.382 33.558,65.537C33.392,65.766 33.373,66.08 33.204,66.305C33.085,66.465 32.843,66.499 32.721,66.656C32.552,66.872 32.52,67.174 32.355,67.393C32.233,67.553 31.963,67.582 31.88,67.766C31.821,67.896 32.064,68.049 32.001,68.177C31.914,68.353 31.63,68.351 31.514,68.509C31.346,68.737 31.353,69.065 31.182,69.291C31.06,69.453 30.798,69.463 30.671,69.621C30.501,69.835 30.489,70.145 30.326,70.364C30.203,70.53 29.953,70.575 29.835,70.745C29.52,71.199 29.353,71.743 29.049,72.204C28.944,72.362 28.734,72.427 28.624,72.581C28.462,72.809 28.414,73.108 28.247,73.333C28.13,73.49 27.897,73.54 27.789,73.704C27.483,74.17 27.332,74.726 27.026,75.192C26.922,75.352 26.692,75.397 26.58,75.552C26.416,75.78 26.386,76.089 26.218,76.315C26.1,76.473 25.867,76.517 25.746,76.673C25.578,76.89 25.539,77.188 25.373,77.407C25.253,77.566 24.991,77.602 24.906,77.783C24.848,77.907 25.071,78.059 25.01,78.182C24.923,78.356 24.652,78.367 24.537,78.524C24.371,78.753 24.364,79.074 24.194,79.299C24.073,79.459 23.822,79.482 23.698,79.639C23.528,79.855 23.506,80.163 23.341,80.382C23.219,80.544 22.98,80.589 22.858,80.75C22.341,81.426 22.694,81.595 22.169,82.282C22.044,82.445 21.773,82.443 21.644,82.602C21.473,82.815 21.471,83.13 21.309,83.35C21.185,83.517 20.929,83.555 20.811,83.727C20.498,84.183 20.342,84.734 20.038,85.197C19.933,85.356 19.713,85.411 19.602,85.566C19.438,85.795 19.399,86.098 19.232,86.324C19.115,86.482 18.888,86.532 18.768,86.689C18.251,87.362 18.527,87.502 18.018,88.186C17.903,88.341 17.672,88.382 17.559,88.538C17.393,88.766 17.373,89.08 17.204,89.306C17.085,89.465 16.844,89.5 16.722,89.656C16.553,89.873 16.521,90.175 16.356,90.394C16.235,90.554 15.966,90.584 15.883,90.767C15.824,90.897 16.064,91.05 16.001,91.177C15.914,91.353 15.631,91.351 15.515,91.51C15.347,91.738 15.353,92.065 15.181,92.291C15.059,92.452 14.798,92.463 14.672,92.621C14.501,92.835 14.489,93.145 14.326,93.363C14.202,93.53 13.953,93.575 13.834,93.745C13.519,94.199 13.352,94.743 13.049,95.204C12.945,95.362 12.735,95.427 12.625,95.581C12.463,95.81 12.414,96.108 12.248,96.334C12.131,96.492 11.902,96.543 11.794,96.707C11.488,97.172 11.333,97.726 11.027,98.191C10.922,98.351 10.692,98.397 10.58,98.552C10.417,98.779 10.39,99.088 10.22,99.31C10.093,99.476 9.849,99.519 9.715,99.679C9.553,99.873 9.541,100.176 9.353,100.346C9.15,100.531 8.82,100.52 8.603,100.688C8.468,100.793 8.497,101.055 8.343,101.129C8.033,101.28 4.163,101.317 3.544,101.244C3.04,101.186 1.864,101.053 1.987,97.499C2.173,92.14 1.995,85.618 2.061,81.489C2.106,78.686 2.857,78.71 3.277,78.271C3.441,78.1 3.491,77.836 3.667,77.678C3.856,77.509 4.154,77.493 4.34,77.319C4.51,77.161 4.523,76.873 4.698,76.719C4.892,76.548 5.17,76.503 5.401,76.384C6.231,75.954 6.079,75.791 6.455,75.442C6.644,75.267 6.92,75.211 7.115,75.043C7.281,74.9 7.358,74.671 7.521,74.524C7.708,74.356 7.966,74.277 8.152,74.108C8.319,73.956 8.398,73.723 8.566,73.572C8.753,73.404 9.015,73.334 9.201,73.163C9.368,73.01 9.436,72.767 9.606,72.616C9.794,72.447 10.068,72.393 10.254,72.221C10.422,72.066 10.473,71.809 10.644,71.658C10.834,71.489 11.124,71.458 11.311,71.285C11.48,71.127 11.506,70.85 11.68,70.696C11.872,70.526 12.18,70.525 12.368,70.351C12.54,70.19 12.537,69.891 12.713,69.736C12.909,69.563 13.194,69.532 13.427,69.415C14.348,68.953 14.162,68.762 14.476,68.468C14.663,68.293 14.943,68.239 15.137,68.071C15.304,67.926 15.375,67.692 15.539,67.545C15.727,67.375 15.989,67.304 16.177,67.133C16.344,66.981 16.417,66.744 16.585,66.593C16.773,66.425 17.042,66.363 17.227,66.192C17.395,66.038 17.453,65.787 17.623,65.635C17.813,65.466 18.096,65.425 18.282,65.253C18.451,65.097 18.489,64.829 18.661,64.676C18.852,64.507 19.15,64.49 19.338,64.316C19.508,64.158 19.521,63.87 19.695,63.716C19.889,63.544 20.201,63.55 20.396,63.378C20.561,63.232 20.562,62.952 20.727,62.805C20.929,62.625 21.214,62.567 21.451,62.436C22.347,61.939 22.212,61.795 22.517,61.52C22.705,61.351 22.962,61.273 23.149,61.103C23.315,60.952 23.395,60.72 23.563,60.569C23.751,60.401 24.013,60.331 24.199,60.161C24.366,60.008 24.436,59.766 24.605,59.615C24.793,59.446 25.067,59.392 25.252,59.22C25.42,59.065 25.472,58.808 25.642,58.655C25.832,58.486 26.12,58.454 26.306,58.281C26.475,58.122 26.502,57.845 26.676,57.691C26.868,57.521 27.175,57.52 27.363,57.345C27.535,57.185 27.533,56.887 27.709,56.731C27.905,56.559 28.19,56.527 28.423,56.41C29.464,55.89 29.284,55.702 29.965,54.767C30.909,53.47 29.831,52.591 29.713,52.396C29.238,51.612 29.491,51.517 29.052,50.713C28.978,50.577 28.797,50.522 28.721,50.387C28.577,50.129 28.58,49.798 28.407,49.559C28.251,49.345 27.974,49.254 27.774,49.081C26.775,48.214 26.632,48.736 25.395,49.203C24.059,49.707 24.002,49.445 22.669,49.955C22.545,50.002 22.522,50.201 22.398,50.248C21.813,50.469 21.163,50.494 20.59,50.741C20.452,50.8 20.503,51.09 20.357,51.126C20.127,51.183 19.896,50.921 19.664,50.97C19.53,50.997 19.571,51.265 19.443,51.316C18.856,51.55 18.194,51.554 17.607,51.789C17.473,51.842 17.496,52.084 17.367,52.146C17.086,52.283 16.756,52.273 16.454,52.349C15.841,52.502 15.21,52.603 14.623,52.834C14.494,52.884 14.499,53.106 14.375,53.166C14.092,53.299 13.766,53.304 13.464,53.382C12.854,53.541 12.227,53.648 11.64,53.876C11.514,53.924 11.505,54.131 11.383,54.188C10.515,54.592 10.446,54.333 9.56,54.672C4.928,56.442 4.9,56.346 4.508,56.524C3.325,57.061 2.971,57.758 2.397,56.592C1.688,55.154 1.941,55.091 1.986,53.499C2.282,43.103 1.75,42.76 2.356,41.406C2.826,40.355 3.909,40.67 18.5,40.674C25.228,40.675 25.26,40.81 25.552,40.634C25.791,40.489 25.705,40.073 25.897,39.871C26.075,39.682 26.47,39.757 26.597,39.531C26.762,39.236 26.639,38.855 26.654,38.517C26.703,37.435 26.828,37.474 27.086,36.436C27.166,36.117 27.215,35.784 27.201,35.454C27.186,35.099 27.028,34.762 26.999,34.408C26.982,34.19 27.146,33.958 27.063,33.755C26.99,33.575 26.732,33.545 26.592,33.409C26.455,33.276 26.412,33.041 26.24,32.957C26.102,32.89 25.929,33.063 25.784,33.015C25.629,32.963 25.569,32.756 25.422,32.685C24.567,32.275 24.473,32.597 23.633,32.173C23.503,32.107 23.499,31.884 23.366,31.825C22.803,31.573 22.17,31.506 21.602,31.266C21.472,31.212 21.44,31.013 21.31,30.96C18.92,29.976 18.832,30.273 18.633,30.173C18.502,30.107 18.499,29.885 18.365,29.826C17.803,29.575 17.171,29.506 16.603,29.266C16.472,29.211 16.441,29.01 16.31,28.956C13.922,27.969 13.834,28.271 13.635,28.17C13.504,28.103 13.502,27.879 13.367,27.819C12.805,27.568 12.172,27.502 11.604,27.263C11.473,27.208 11.443,27.008 11.312,26.954C8.923,25.97 8.834,26.271 8.635,26.17C8.504,26.103 8.502,25.879 8.367,25.819C7.805,25.567 7.173,25.5 6.605,25.26C6.475,25.205 6.444,25.005 6.313,24.951C5.74,24.715 5.128,24.583 4.533,24.405C1.376,23.459 2.056,21.193 2.056,18.5C2.056,5.535 2.005,5.554 2.019,4.428C2.046,2.438 2.704,1.678 4.239,2.946C4.384,3.066 4.41,3.295 4.556,3.415C4.769,3.59 5.079,3.623 5.286,3.807C5.445,3.948 5.451,4.217 5.613,4.355C5.815,4.527 6.126,4.53 6.332,4.698C6.503,4.839 6.527,5.115 6.705,5.248C7.118,5.557 7.648,5.686 8.064,5.994C8.246,6.13 8.288,6.401 8.46,6.549C8.67,6.729 8.966,6.784 9.182,6.957C9.337,7.081 9.394,7.305 9.553,7.425C9.773,7.591 10.079,7.621 10.293,7.795C10.455,7.927 10.483,8.182 10.644,8.316C10.847,8.485 11.146,8.51 11.351,8.677C11.52,8.816 11.569,9.066 11.735,9.209C12.361,9.75 12.524,9.459 13.167,9.983C13.324,10.112 13.347,10.365 13.508,10.488C13.729,10.658 14.057,10.65 14.271,10.828C14.435,10.966 14.423,11.25 14.587,11.389C14.79,11.562 15.109,11.549 15.317,11.716C15.49,11.856 15.515,12.128 15.682,12.275C15.879,12.448 16.173,12.479 16.376,12.645C16.544,12.783 16.604,13.025 16.769,13.168C17.39,13.703 17.534,13.448 18.177,13.966C18.333,14.091 18.378,14.326 18.538,14.447C18.758,14.613 19.072,14.63 19.285,14.806C19.448,14.94 19.462,15.206 19.624,15.342C19.827,15.512 20.133,15.523 20.338,15.691C20.509,15.83 20.54,16.101 20.716,16.234C21.129,16.544 21.654,16.683 22.068,16.991C22.25,17.126 22.299,17.39 22.47,17.537C22.679,17.716 22.971,17.777 23.186,17.949C23.341,18.073 23.404,18.292 23.563,18.412C23.783,18.577 24.085,18.613 24.298,18.787C24.46,18.919 24.495,19.167 24.655,19.301C24.859,19.47 25.154,19.5 25.359,19.668C25.528,19.806 25.581,20.052 25.746,20.195C26.371,20.733 26.526,20.461 27.168,20.982C27.324,21.109 27.358,21.353 27.518,21.475C27.739,21.643 28.059,21.648 28.273,21.825C28.437,21.96 28.439,22.234 28.601,22.371C28.803,22.543 29.115,22.546 29.32,22.715C29.49,22.855 29.523,23.117 29.687,23.264C29.887,23.446 30.176,23.506 30.384,23.679C30.539,23.808 30.622,24.247 31.518,24.292C32.45,24.338 32.466,23.939 32.689,23.738C32.867,23.576 33.156,23.539 33.293,23.341C33.577,22.93 33.622,21.358 33.163,20.763C33.03,20.591 32.777,20.55 32.628,20.391C32.456,20.208 32.391,19.94 32.218,19.757C32.058,19.59 31.805,19.532 31.648,19.362C31.478,19.178 31.433,18.9 31.261,18.718C31.101,18.549 30.833,18.507 30.676,18.335C30.506,18.15 30.481,17.858 30.307,17.676C30.145,17.505 29.86,17.485 29.701,17.311C29.53,17.125 29.527,16.819 29.352,16.636C29.188,16.463 28.889,16.464 28.727,16.289C28.553,16.1 28.513,15.822 28.393,15.596C27.909,14.684 27.729,14.863 27.432,14.554C27.258,14.371 27.197,14.101 27.03,13.912C26.336,13.127 26.254,13.24 25.534,12.468C24.794,11.673 24.896,11.609 24.153,10.819C23.995,10.652 23.753,10.579 23.596,10.41C23.427,10.227 23.364,9.963 23.194,9.781C23.035,9.613 22.784,9.551 22.627,9.381C22.458,9.198 22.406,8.925 22.235,8.744C22.075,8.575 21.813,8.525 21.655,8.354C21.485,8.17 21.45,7.886 21.277,7.705C21.115,7.535 20.84,7.503 20.681,7.33C20.51,7.144 20.495,6.847 20.321,6.664C20.157,6.493 19.866,6.481 19.706,6.306C19.534,6.118 19.542,5.806 19.366,5.623C19.2,5.45 18.896,5.461 18.728,5.289C18.549,5.105 18.554,4.787 18.373,4.606C18.212,4.446 17.919,4.478 17.756,4.321C17.547,4.117 17.495,3.792 17.306,3.57C17.212,3.46 16.925,3.495 16.93,3.35C16.942,2.996 17.195,2.693 17.346,2.374C17.66,1.708 17.813,1.86 18.539,1.872C24.53,1.97 24.507,2.007 30.504,2.034C33.102,2.045 33.114,2.302 33.87,3.258C34.594,4.173 34.295,4.322 34.866,5.328C34.943,5.465 35.16,5.489 35.226,5.631C35.481,6.182 35.542,6.811 35.805,7.358C35.874,7.504 36.113,7.506 36.192,7.647C36.649,8.461 36.261,8.597 36.741,9.39C36.824,9.527 37.065,9.515 37.144,9.655C37.252,9.847 36.949,9.949 37.985,12.275C38.046,12.412 38.229,12.463 38.302,12.594C38.75,13.402 38.498,13.496 38.934,14.298C39.007,14.432 39.202,14.474 39.267,14.612C39.517,15.146 39.575,15.762 39.861,16.278C39.964,16.462 40.234,16.485 40.386,16.63C40.52,16.758 40.546,16.994 40.708,17.082C41.613,17.576 41.62,17.122 42.589,16.762C42.589,16.762 44.255,16.3 44.4,16.26C44.724,15.923 44.917,16.385 45.241,16.049C45.34,15.946 45.955,15.307 46.103,14.488C46.167,14.135 45.642,13.842 45.705,13.489Z" style="fill:rgb(218,39,38);fill-opacity:0.99;"/>
            <path d="M45.705,13.489C45.642,13.842 46.167,14.135 46.103,14.488C45.955,15.307 45.34,15.946 45.241,16.049C44.917,16.385 44.724,15.923 44.4,16.26C44.46,16.077 44.628,15.943 44.688,15.76C44.8,15.423 44.765,15.041 44.911,14.717C45.11,14.272 45.506,13.934 45.705,13.489Z" style="fill:rgb(194,49,43);fill-opacity:0.16;"/>
            <path d="M82.478,100.496C82.356,100.608 82.653,101.349 81.475,101.426C81.147,101.447 80.818,101.361 80.489,101.382C80.615,101.29 80.539,101.041 80.665,100.949C80.958,100.735 81.518,100.595 81.596,100.576C82.041,100.465 82.045,100.604 82.478,100.496Z" style="fill:rgb(210,42,39);fill-opacity:0.39;"/>
            <path d="M70.244,22.712C70.435,22.907 70.832,22.772 71.023,22.967C71.023,22.967 71.501,24.323 71.543,24.441C71.284,24.173 71.178,24.358 70.925,24.095C70.84,24.006 70.875,23.993 70.244,22.712Z" style="fill:rgb(198,47,42);fill-opacity:0.32;"/>
        </g>
    </g>
</svg>
